<?xml version="1.0" encoding="UTF-8"?>
<svg id="Calque_2" data-name="Calque 2" xmlns="http://www.w3.org/2000/svg" viewBox="0 0 551.69 167.42">
  <defs>
    <style>
      .cls-1 {
        fill: #998700;
      }

      .cls-2 {
        isolation: isolate;
      }

      .cls-3 {
        fill: #263c5c;
      }
    </style>
  </defs>
  <g id="Calque_1-2" data-name="Calque 1">
    <path id="path8463" class="cls-3" d="M30.29,37.07v81.05l-30.29-.33v.33V4.55h39.46c17.31,0,30.86,4.37,40.65,13.11,11.64,10.45,17.46,24.64,17.46,42.55s-4.97,31.14-14.92,41.97c-9.95,10.84-22.49,16-38.16,16-1.84,0-2.68-.06-3.11-.07v-33.26l2.17-.04c17.65-.09,22.99-8.17,22.99-24.59,0-15.43-8.68-23.14-26.03-23.14h-10.22Z"/>
    <path id="path8465" class="cls-3" d="M145.09,37.04c10.54,0,19.57,4.23,27.08,12.69,7.56,8.41,11.34,18.5,11.34,30.28s-3.83,22.12-11.49,30.53c-7.61,8.41-16.81,12.61-27.6,12.61s-20.02-4.2-27.68-12.61c-7.66-8.46-11.49-18.64-11.49-30.53s3.83-22.29,11.49-30.53c7.66-8.3,17.11-12.44,28.35-12.44h0ZM144.34,67.65c-2.98,0-5.52,1.22-7.61,3.65-2.09,2.38-3.13,5.31-3.13,8.79,0,3.43,1.04,6.36,3.13,8.79,2.14,2.43,4.67,3.65,7.61,3.65s5.52-1.22,7.61-3.65c2.14-2.43,3.21-5.36,3.21-8.79s-1.04-6.42-3.13-8.79c-2.09-2.43-4.65-3.65-7.68-3.65Z"/>
    <path id="path8467" class="cls-3" d="M223.04,9.58v113.56h-27.9V9.58h27.9Z"/>
    <path id="path8471" class="cls-3" d="M310.02,8.7v67.77c0,11.01,3.56,16.51,10.67,16.51,3.03,0,5.59-1.13,7.68-3.4,2.14-2.32,3.21-5.12,3.21-8.38s-.99-6.19-2.98-8.46c-1.99-2.32-4.43-3.48-7.31-3.48-2.04,0-6.81-.01-6.81-.01l-.21-31.49s5.77-.19,7.46-.19c10.49,0,19.47,4.2,26.93,12.61,7.51,8.41,11.26,18.53,11.26,30.36s-4.25,21.92-11.41,30.61c-7.09,8.61-19,12.07-28.05,12-5.57-.04-11.02-.91-16.34-3.62-5.27-2.71-9.62-6.36-13.05-10.95-5.97-7.96-8.95-18.28-8.95-30.94V8.7h27.9Z"/>
    <path id="path8473" class="cls-3" d="M413.36,93.86l-.13,29.29h-6.09c-11.19,0-20.51-2.68-27.97-10.87-7.46-8.18-11.19-18.44-11.19-30.78s3.75-22.18,11.26-30.53c7.56-8.35,16.73-12.53,27.53-12.53,12.03,0,21.51,3.93,28.42,11.78,6.96,7.8,10.44,18.47,10.44,32.02l-.05,40.9h-27.95l.1-38.66c.01-4.37-.97-7.85-2.91-10.45-1.89-2.6-4.45-3.9-7.68-3.9-2.93,0-5.47,1.19-7.61,3.57-2.14,2.38-3.21,5.2-3.21,8.46,0,3.43.97,6.25,2.91,8.46s4.4,3.32,7.39,3.32c2.44,0,6.74-.09,6.74-.09h0Z"/>
    <path id="path8475" class="cls-3" d="M502.65,38.37v32.18s-3.65.09-5.24.09c-5.07,0-7.61,4.31-7.61,12.94v39.57h-27.9v-45.54c0-11.95,2.93-21.46,8.8-28.54,5.87-7.13,13.7-10.7,23.5-10.7,2.19,0,8.45,0,8.45,0h0Z"/>
    <path id="path8477" class="cls-3" d="M551.69,38.38l-.03,32.2s-3.73.06-5.32.06c-5.07,0-7.61,4.31-7.61,12.94v39.57h-27.9v-45.54c0-11.95,2.93-21.46,8.8-28.54,5.87-7.13,13.7-10.7,23.5-10.7,2.19,0,8.56,0,8.56,0h0Z"/>
    <path id="path8467-5" class="cls-3" d="M267.23,38.81v84.33h-27.9V38.81h27.9Z"/>
    <g id="text5484">
      <g class="cls-2">
        <path class="cls-1" d="M192.95,167.42v-29.59h8.75c1.54,0,2.72.09,3.53.28,1.14.24,2.09.7,2.86,1.38.77.68,1.39,1.63,1.86,2.86s.7,2.57.7,4.04c0,2.52-.63,4.65-1.88,6.39-1.26,1.74-3.52,2.61-6.8,2.61h-5.95v12.03h-3.07ZM196.02,151.9h6c1.98,0,3.39-.47,4.22-1.41.83-.94,1.25-2.27,1.25-3.98,0-1.24-.25-2.3-.74-3.18-.49-.88-1.14-1.46-1.94-1.75-.52-.17-1.47-.26-2.86-.26h-5.93v10.58Z"/>
        <path class="cls-1" d="M214.61,167.42v-29.59h10.28c2.07,0,3.64.27,4.71.8,1.08.53,1.94,1.47,2.58,2.82.64,1.35.96,2.83.96,4.46,0,2.1-.53,3.87-1.6,5.31-1.07,1.44-2.71,2.35-4.94,2.75.81.5,1.43.99,1.85,1.47.9,1.05,1.75,2.36,2.55,3.94l4.03,8.05h-3.86l-3.07-6.16c-.9-1.78-1.64-3.14-2.22-4.08-.58-.94-1.1-1.6-1.56-1.98s-.93-.64-1.4-.79c-.35-.09-.92-.14-1.71-.14h-3.56v13.14h-3.07ZM217.68,150.89h6.6c1.4,0,2.5-.18,3.29-.56.79-.37,1.39-.96,1.8-1.78.41-.81.62-1.7.62-2.66,0-1.4-.4-2.55-1.19-3.45-.8-.9-2.05-1.35-3.77-1.35h-7.34v9.79Z"/>
        <path class="cls-1" d="M238.02,167.42v-29.59h16.77v3.49h-13.7v9.06h12.83v3.47h-12.83v10.07h14.24v3.49h-17.31Z"/>
        <path class="cls-1" d="M259.73,167.42v-29.59h15.65v3.49h-12.58v9.16h10.89v3.49h-10.89v13.44h-3.07Z"/>
        <path class="cls-1" d="M279.43,167.42v-29.59h16.77v3.49h-13.7v9.06h12.83v3.47h-12.83v10.07h14.24v3.49h-17.31Z"/>
        <path class="cls-1" d="M301.02,167.42v-29.59h10.28c2.07,0,3.64.27,4.71.8,1.08.53,1.94,1.47,2.58,2.82.64,1.35.96,2.83.96,4.46,0,2.1-.53,3.87-1.6,5.31-1.07,1.44-2.71,2.35-4.94,2.75.81.5,1.43.99,1.85,1.47.9,1.05,1.75,2.36,2.55,3.94l4.03,8.05h-3.86l-3.07-6.16c-.9-1.78-1.64-3.14-2.22-4.08-.58-.94-1.1-1.6-1.56-1.98s-.93-.64-1.4-.79c-.35-.09-.92-.14-1.71-.14h-3.56v13.14h-3.07ZM304.09,150.89h6.6c1.4,0,2.5-.18,3.29-.56.79-.37,1.39-.96,1.8-1.78.41-.81.62-1.7.62-2.66,0-1.4-.4-2.55-1.19-3.45-.8-.9-2.05-1.35-3.77-1.35h-7.34v9.79Z"/>
        <path class="cls-1" d="M324.42,167.42v-29.59h10.28c2.07,0,3.64.27,4.71.8,1.08.53,1.94,1.47,2.58,2.82.64,1.35.96,2.83.96,4.46,0,2.1-.53,3.87-1.6,5.31-1.07,1.44-2.71,2.35-4.94,2.75.81.5,1.43.99,1.85,1.47.9,1.05,1.75,2.36,2.55,3.94l4.03,8.05h-3.86l-3.07-6.16c-.9-1.78-1.64-3.14-2.22-4.08-.58-.94-1.1-1.6-1.56-1.98s-.93-.64-1.4-.79c-.35-.09-.92-.14-1.71-.14h-3.56v13.14h-3.07ZM327.49,150.89h6.6c1.4,0,2.5-.18,3.29-.56.79-.37,1.39-.96,1.8-1.78.41-.81.62-1.7.62-2.66,0-1.4-.4-2.55-1.19-3.45-.8-.9-2.05-1.35-3.77-1.35h-7.34v9.79Z"/>
        <path class="cls-1" d="M347.84,167.42v-29.59h16.77v3.49h-13.7v9.06h12.83v3.47h-12.83v10.07h14.24v3.49h-17.31Z"/>
        <path class="cls-1" d="M369.38,167.42v-29.59h7.99c1.8,0,3.18.14,4.13.42,1.33.39,2.46,1.1,3.4,2.12,1.22,1.32,2.14,3,2.75,5.06s.91,4.4.91,7.03c0,2.25-.21,4.24-.62,5.97-.41,1.74-.94,3.17-1.58,4.31-.64,1.14-1.35,2.03-2.11,2.68-.77.65-1.69,1.15-2.77,1.48-1.08.34-2.32.5-3.73.5h-8.37ZM372.45,163.93h4.95c1.53,0,2.73-.18,3.6-.54.87-.36,1.56-.87,2.08-1.53.73-.93,1.29-2.18,1.7-3.74.41-1.57.61-3.47.61-5.7,0-3.09-.4-5.47-1.19-7.14-.8-1.66-1.76-2.78-2.9-3.34-.82-.4-2.15-.61-3.97-.61h-4.87v22.61Z"/>
        <path class="cls-1" d="M401.79,167.42v-29.59h8.75c1.54,0,2.72.09,3.53.28,1.14.24,2.09.7,2.86,1.38.77.68,1.39,1.63,1.86,2.86s.7,2.57.7,4.04c0,2.52-.63,4.65-1.88,6.39-1.26,1.74-3.52,2.61-6.8,2.61h-5.95v12.03h-3.07ZM404.86,151.9h6c1.98,0,3.39-.47,4.22-1.41.83-.94,1.25-2.27,1.25-3.98,0-1.24-.25-2.3-.74-3.18-.49-.88-1.14-1.46-1.94-1.75-.52-.17-1.47-.26-2.86-.26h-5.93v10.58Z"/>
        <path class="cls-1" d="M418.45,167.42l8.91-29.59h3.31l9.49,29.59h-3.5l-2.71-8.96h-9.7l-2.55,8.96h-3.26ZM425.14,155.27h7.86l-2.42-8.2c-.74-2.49-1.29-4.53-1.65-6.14-.3,1.9-.71,3.78-1.25,5.65l-2.55,8.68Z"/>
        <path class="cls-1" d="M442.65,167.42v-29.59h10.28c2.07,0,3.64.27,4.71.8,1.08.53,1.94,1.47,2.58,2.82.64,1.35.96,2.83.96,4.46,0,2.1-.53,3.87-1.6,5.31-1.07,1.44-2.71,2.35-4.94,2.75.81.5,1.43.99,1.85,1.47.9,1.05,1.75,2.36,2.55,3.94l4.03,8.05h-3.86l-3.07-6.16c-.9-1.78-1.64-3.14-2.22-4.08-.58-.94-1.1-1.6-1.56-1.98s-.93-.64-1.4-.79c-.35-.09-.92-.14-1.71-.14h-3.56v13.14h-3.07ZM445.72,150.89h6.6c1.4,0,2.5-.18,3.29-.56.79-.37,1.39-.96,1.8-1.78.41-.81.62-1.7.62-2.66,0-1.4-.4-2.55-1.19-3.45-.8-.9-2.05-1.35-3.77-1.35h-7.34v9.79Z"/>
        <path class="cls-1" d="M471.32,167.42v-26.1h-7.64v-3.49h18.38v3.49h-7.67v26.1h-3.07Z"/>
        <path class="cls-1" d="M485.18,167.42v-29.59h3.15l12.18,23.23v-23.23h2.94v29.59h-3.15l-12.18-23.25v23.25h-2.94Z"/>
        <path class="cls-1" d="M508.67,167.42v-29.59h16.77v3.49h-13.7v9.06h12.83v3.47h-12.83v10.07h14.24v3.49h-17.31Z"/>
        <path class="cls-1" d="M530.27,167.42v-29.59h10.28c2.07,0,3.64.27,4.71.8,1.08.53,1.94,1.47,2.58,2.82.64,1.35.97,2.83.97,4.46,0,2.1-.53,3.87-1.6,5.31-1.07,1.44-2.71,2.35-4.94,2.75.81.5,1.43.99,1.85,1.47.9,1.05,1.75,2.36,2.55,3.94l4.03,8.05h-3.86l-3.07-6.16c-.9-1.78-1.64-3.14-2.22-4.08-.58-.94-1.1-1.6-1.56-1.98s-.93-.64-1.4-.79c-.35-.09-.92-.14-1.71-.14h-3.56v13.14h-3.07ZM533.34,150.89h6.6c1.4,0,2.5-.18,3.29-.56.79-.37,1.39-.96,1.8-1.78.41-.81.62-1.7.62-2.66,0-1.4-.4-2.55-1.19-3.45-.8-.9-2.05-1.35-3.77-1.35h-7.34v9.79Z"/>
      </g>
    </g>
    <ellipse id="path957" class="cls-1" cx="253.19" cy="14.98" rx="14.43" ry="14.98"/>
    <path id="path8463-2" data-name="path8463" class="cls-1" d="M45.92,72.1c7.31-.04,9.52-3.74,9.52-11.25,0-7.06-3.59-10.59-10.78-10.59h-4.23s.09,21.9.09,21.9l5.4-.07Z"/>
  </g>
</svg>