<?xml version="1.0" encoding="UTF-8"?>
<svg id="Calque_2" data-name="Calque 2" xmlns="http://www.w3.org/2000/svg" viewBox="0 0 98.77 115.04">
  <defs>
    <style>
      .cls-1 {
        fill: #fff;
        stroke-width: 0px;
      }
    </style>
  </defs>
  <g id="Calque_1-2" data-name="Calque 1">
    <path id="path8463" class="cls-1" d="m30.66,32.92v82.04l-30.66-.34v.34V0h39.95c17.52,0,31.24,4.42,41.16,13.27,11.78,10.58,17.67,24.94,17.67,43.08s-5.03,31.52-15.1,42.49c-10.07,10.97-22.77,16.2-38.63,16.2-1.86,0-2.71-.06-3.15-.07v-33.67l2.19-.05c17.87-.1,23.27-8.27,23.27-24.9,0-15.62-8.78-23.43-26.35-23.43h-10.35Z"/>
    <path id="path8463-2" data-name="path8463" class="cls-1" d="m46.49,68.39c7.4-.04,9.63-3.78,9.63-11.39,0-7.14-3.64-10.72-10.91-10.72h-4.28s.09,22.17.09,22.17l5.47-.07Z"/>
  </g>
</svg>