<?xml version="1.0" encoding="UTF-8"?>
<svg id="Calque_2" data-name="Calque 2" xmlns="http://www.w3.org/2000/svg" viewBox="0 0 106.1 123.56">
  <defs>
    <style>
      .cls-1 {
        fill: #998700;
      }

      .cls-1, .cls-2 {
        stroke-width: 0px;
      }

      .cls-2 {
        fill: #263c5c;
      }
    </style>
  </defs>
  <g id="Calque_1-2" data-name="Calque 1">
    <path id="path8463" class="cls-2" d="m32.93,35.36v88.12l-32.93-.36v.36V0h42.91c18.82,0,33.55,4.75,44.21,14.25,12.65,11.37,18.98,26.79,18.98,46.27s-5.41,33.85-16.22,45.64c-10.82,11.79-24.46,17.4-41.49,17.4-2,0-2.91-.06-3.38-.08v-36.17l2.36-.05c19.2-.1,25-8.88,25-26.74,0-16.78-9.44-25.17-28.31-25.17h-11.11Z"/>
    <path id="path8463-2" data-name="path8463" class="cls-1" d="m49.94,73.46c7.95-.05,10.35-4.06,10.35-12.23,0-7.67-3.91-11.51-11.72-11.51h-4.6s.1,23.81.1,23.81l5.87-.07Z"/>
  </g>
</svg>