<?xml version="1.0" encoding="UTF-8"?>
<svg id="Calque_2" data-name="Calque 2" xmlns="http://www.w3.org/2000/svg" viewBox="0 0 436 80.69">
  <defs>
    <style>
      .cls-1 {
        fill: #a05a2c;
      }

      .cls-1, .cls-2 {
        stroke-width: 0px;
      }

      .cls-2 {
        fill: #263c5c;
      }
    </style>
  </defs>
  <g id="Calque_1-2" data-name="Calque 1">
    <ellipse id="path957" class="cls-1" cx="184.68" cy="10.71" rx="10.32" ry="10.71"/>
    <path class="cls-2" d="m22.07,26.32v52.9H0V5h28.76c12.61,0,22.49,2.86,29.63,8.59,8.48,6.85,12.72,16.15,12.72,27.89s-3.62,20.41-10.87,27.51c-7.25,7.1-16.58,10.66-28,10.66-1.34,0-3.53-.07-6.58-.22v-21.8h3.53c12.87,0,19.3-5.38,19.3-16.15,0-10.11-6.33-15.17-18.98-15.17h-7.45Z"/>
    <path class="cls-2" d="m105.7,23.87c7.68,0,14.27,2.76,19.76,8.29,5.49,5.53,8.24,12.15,8.24,19.87s-2.78,14.5-8.35,20.01c-5.56,5.51-12.28,8.26-20.14,8.26s-14.59-2.76-20.17-8.29c-5.58-5.53-8.37-12.19-8.37-19.98s2.79-14.62,8.37-20.04c5.58-5.42,12.47-8.13,20.66-8.13Zm-.54,20.06c-2.17,0-4.02.79-5.55,2.37-1.52,1.58-2.28,3.51-2.28,5.79s.77,4.17,2.31,5.76c1.54,1.59,3.38,2.39,5.52,2.39s4.03-.8,5.57-2.39c1.54-1.59,2.31-3.52,2.31-5.76s-.76-4.21-2.28-5.79c-1.52-1.58-3.39-2.37-5.6-2.37Z"/>
    <path class="cls-2" d="m162.51,5v74.22h-20.33V5h20.33Z"/>
    <path class="cls-2" d="m194.76,25.01v54.21h-20.33V25.01h20.33Z"/>
    <path class="cls-1" d="m240.7,25.77v21.42c-2.86,0-4.83.53-5.9,1.6-1.07,1.07-1.75,3.18-2.04,6.33-.94,10.48-5,17.87-12.18,22.18-3.81,2.25-9.21,3.37-16.2,3.37h-2.83v-21.53h.92c3.26,0,5.59-.68,6.99-2.04,1.39-1.36,2.2-3.74,2.42-7.15.29-5.55.81-9.44,1.55-11.69.74-2.25,2.26-4.48,4.54-6.69,3.99-3.88,9.51-5.82,16.58-5.82h6.14Z"/>
    <path class="cls-1" d="m265.44,5v20.77h9.13v21.48h-9.13c0,4.31.68,7.29,2.04,8.92s3.85,2.45,7.48,2.45v21.37c-1.05.04-1.83.05-2.34.05-4.6,0-8.94-1.07-13.02-3.21-4.08-2.14-7.35-5.04-9.81-8.7-3.12-4.68-4.68-10.87-4.68-18.59V5h20.33Z"/>
    <path class="cls-1" d="m310.29,23.87c7.68,0,14.27,2.76,19.76,8.29,5.49,5.53,8.24,12.15,8.24,19.87s-2.78,14.5-8.35,20.01c-5.56,5.51-12.28,8.26-20.14,8.26s-14.59-2.76-20.17-8.29c-5.58-5.53-8.37-12.19-8.37-19.98s2.79-14.62,8.37-20.04c5.58-5.42,12.47-8.13,20.66-8.13Zm-.54,20.06c-2.17,0-4.02.79-5.55,2.37-1.52,1.58-2.28,3.51-2.28,5.79s.77,4.17,2.31,5.76c1.54,1.59,3.38,2.39,5.52,2.39s4.03-.8,5.57-2.39c1.54-1.59,2.31-3.52,2.31-5.76s-.76-4.21-2.28-5.79c-1.52-1.58-3.39-2.37-5.6-2.37Z"/>
    <path class="cls-1" d="m376.52,24.47v21.75c-1.41-.8-2.7-1.2-3.86-1.2-3.7,0-5.55,2.83-5.55,8.48v25.72h-20.33v-29.63c0-7.83,2.14-14.07,6.42-18.73,4.28-4.66,9.99-6.99,17.13-6.99,1.59,0,3.66.2,6.2.6Z"/>
    <path class="cls-1" d="m435.78,55.4h-30.83c-.47-1.56-.71-2.99-.71-4.3,0-1.81.33-3.59.98-5.33h10.33c-.73-4.02-2.99-6.04-6.8-6.04-2.54,0-4.6,1.08-6.2,3.24-1.6,2.16-2.39,4.92-2.39,8.29s.77,6.36,2.31,8.54c1.54,2.17,3.56,3.26,6.06,3.26,2.03,0,3.99-1.01,5.87-3.04l11.58,13.92c-5.4,4.24-11.4,6.36-18,6.36-8.05,0-14.81-2.7-20.28-8.1-5.47-5.4-8.21-12.09-8.21-20.06s2.76-14.64,8.29-20.12c5.53-5.47,12.32-8.21,20.36-8.21s14.47,2.67,19.82,8.02c5.35,5.35,8.02,11.93,8.02,19.76,0,.8-.07,2.07-.22,3.81Z"/>
  </g>
</svg>