<?xml version="1.0" encoding="UTF-8"?>
<svg id="Calque_2" data-name="Calque 2" xmlns="http://www.w3.org/2000/svg" viewBox="0 0 112.85 99.58">
  <defs>
    <style>
      .cls-1 {
        fill: #fff;
        stroke-width: 0px;
      }
    </style>
  </defs>
  <g id="Calque_1-2" data-name="Calque 1">
    <path class="cls-1" d="m56.37,70.4h1.31c4.63,0,7.94-.97,9.92-2.9,1.98-1.93,3.13-5.31,3.44-10.15.41-7.88,1.15-13.41,2.2-16.6,1.05-3.19,3.2-6.36,6.45-9.5,2.72-2.64,5.94-4.64,9.66-6.02-2.78-5.21-6.63-9.81-11.55-13.79C68.28,3.81,55.12,0,38.32,0H0v98.88h29.41V28.4h9.92c16.85,0,25.28,6.74,25.28,20.21,0,14.34-8.57,21.51-25.72,21.51h-4.71v29.05c4.06.19,6.98.29,8.76.29,4.74,0,9.21-.46,13.41-1.38v-27.68Z"/>
    <path class="cls-1" d="m112.85,25.93v31.15c-3.81,0-6.44.71-7.86,2.14-1.42,1.42-2.33,4.24-2.72,8.44-1.26,13.96-6.66,23.81-16.23,29.55-5.07,2.99-12.27,2.3-21.59,2.3h-3.77v-25.62h1.23c4.35,0,7.45-1.78,9.31-3.59,1.86-1.81,2.93-4.99,3.22-9.53.39-7.39,1.07-15.19,2.06-18.18.99-2.99,3.01-5.96,6.05-8.91,5.31-5.17,12.68-7.75,22.09-7.75h8.19Z"/>
  </g>
</svg>